<?xml version="1.0" encoding="utf-8"?>
<!-- Generator: Adobe Illustrator 24.3.0, SVG Export Plug-In . SVG Version: 6.00 Build 0)  -->
<svg version="1.1" id="Layer_1" xmlns:svgjs="http://svgjs.com/svgjs"
	 xmlns="http://www.w3.org/2000/svg" xmlns:xlink="http://www.w3.org/1999/xlink" x="0px" y="0px" viewBox="0 0 512 512"
	 style="enable-background:new 0 0 512 512;" xml:space="preserve">
<style type="text/css">
	.st0{fill:#E8EDDF;}
</style>
<g>
	<path class="st0" d="M511.5,150.5c-1.2-27.2-5.6-45.9-11.9-62.1C493.1,71.2,483.1,55.8,470,43c-12.8-13-28.3-23.1-45.3-29.5
		c-16.3-6.3-34.9-10.7-62.1-11.9C335.2,0.3,326.5,0,256.9,0s-78.2,0.3-105.5,1.5c-27.2,1.2-45.9,5.6-62.1,11.9
		C72.1,19.9,56.7,29.9,43.9,43c-13,12.8-23.1,28.3-29.5,45.3c-6.3,16.3-10.7,34.9-11.9,62.1c-1.3,27.4-1.6,36.1-1.6,105.6
		s0.3,78.2,1.5,105.5c1.2,27.2,5.6,45.9,11.9,62.1c6.5,17.2,16.6,32.6,29.6,45.4c12.8,13,28.3,23.1,45.3,29.5
		c16.3,6.3,34.9,10.7,62.1,11.9c27.3,1.2,36,1.5,105.5,1.5s78.2-0.3,105.5-1.5c27.2-1.2,45.9-5.6,62.1-11.9
		c34.4-13.3,61.6-40.5,74.9-74.9c6.3-16.3,10.7-34.9,11.9-62.1c1.2-27.3,1.5-36,1.5-105.5S512.7,177.8,511.5,150.5z M465.4,359.6
		c-1.1,25-5.3,38.5-8.8,47.5c-8.6,22.3-26.3,40-48.6,48.6c-9,3.5-22.6,7.7-47.5,8.8c-27,1.2-35.1,1.5-103.4,1.5s-76.5-0.3-103.4-1.5
		c-25-1.1-38.5-5.3-47.5-8.8c-11.1-4.1-21.2-10.6-29.4-19.1c-8.5-8.3-15-18.3-19.1-29.4c-3.5-9-7.7-22.6-8.8-47.5
		c-1.2-27-1.5-35.1-1.5-103.4s0.3-76.5,1.5-103.4c1.1-25,5.3-38.5,8.8-47.5c4.1-11.1,10.6-21.2,19.2-29.4c8.3-8.5,18.3-15,29.4-19.1
		c9-3.5,22.6-7.7,47.5-8.8c27-1.2,35.1-1.5,103.4-1.5c68.4,0,76.5,0.3,103.4,1.5c25,1.1,38.5,5.3,47.5,8.8
		c11.1,4.1,21.2,10.6,29.4,19.1c8.5,8.3,15,18.3,19.1,29.4c3.5,9,7.7,22.6,8.8,47.5c1.2,27,1.5,35.1,1.5,103.4
		S466.6,332.6,465.4,359.6z"/>
	<path class="st0" d="M256.9,124.5c-72.6,0-131.5,58.9-131.5,131.5s58.9,131.5,131.5,131.5c72.6,0,131.5-58.9,131.5-131.5
		S329.6,124.5,256.9,124.5z M256.9,341.4c-47.1,0-85.3-38.2-85.3-85.3s38.2-85.3,85.3-85.3c47.1,0,85.3,38.2,85.3,85.3
		S304.1,341.4,256.9,341.4z"/>
	<path class="st0" d="M424.4,119.3c0,17-13.7,30.7-30.7,30.7c-17,0-30.7-13.7-30.7-30.7c0-17,13.7-30.7,30.7-30.7
		C410.6,88.6,424.4,102.4,424.4,119.3z"/>
</g>
</svg>
