<?xml version="1.0" encoding="utf-8"?>
<!-- Generator: Adobe Illustrator 24.3.0, SVG Export Plug-In . SVG Version: 6.00 Build 0)  -->
<svg version="1.1" id="Layer_1" xmlns="http://www.w3.org/2000/svg" xmlns:xlink="http://www.w3.org/1999/xlink" x="0px" y="0px"
	 viewBox="0 0 339 339" style="enable-background:new 0 0 339 339;" xml:space="preserve">
<style type="text/css">
	.st0{fill:#E8EDDF;}
</style>
<g>
	<path class="st0" d="M169.5,0C76,0,0,76,0,169.5C0,263,76,339,169.5,339S339,263,339,169.5S263,0,169.5,0z M143.4,17.2
		c-13.8,11.8-26.9,26.4-37.5,42.1c-4.8,7-9.1,14.3-12.9,21.7H42.9C66.1,47.9,102,24.3,143.4,17.2z M33.6,96h52.5
		c-8.8,21.3-13.7,43.8-14.6,66.8H15.2C16.2,138.7,22.8,116,33.6,96z M15.2,177.8h56.3c0.9,23.3,5.8,45.7,14.6,66.8H34.5
		C23.4,224.6,16.5,201.9,15.2,177.8z M44.1,259.6h49.2c3.7,7.1,8,14.1,12.7,21c12.5,18.1,25.9,31.6,37.2,41.2
		C102.5,314.7,67.2,291.8,44.1,259.6z M162,317.6c-16.8-12.3-36.5-31.8-51.6-58H162V317.6z M162,244.6h-59.4
		c-8.9-19.4-15.1-41.7-16.1-66.8H162L162,244.6L162,244.6z M162,162.8H86.5c0.9-23.3,6.2-45.7,15.8-66.8H162V162.8L162,162.8z
		 M162,81h-52c2.6-4.5,5.3-8.9,8.3-13.3C133.7,44.9,150.6,30,162,21.5V81L162,81z M323.9,162.8h-56.3c-0.9-23-5.8-45.5-14.6-66.8
		h52.5C316.3,116,322.8,138.7,323.9,162.8z M296.1,81H246c-3.8-7.4-8.1-14.7-12.9-21.7c-10.6-15.6-23.8-30.3-37.5-42.1
		C237.1,24.3,272.9,47.9,296.1,81z M177,21.5c11.4,8.5,28.3,23.4,43.8,46.2c3,4.4,5.7,8.8,8.3,13.3h-52V21.5z M177,96h59.7
		c9.6,21.1,14.9,43.5,15.8,66.8H177V96L177,96z M177,177.8h75.5c-1,25.1-7.2,47.4-16.1,66.8H177L177,177.8L177,177.8z M177,259.6
		h51.6c-15.1,26.2-34.8,45.7-51.6,58V259.6z M195.9,321.8c11.3-9.5,24.7-23,37.2-41.2c4.7-6.8,8.9-13.8,12.7-21H295
		C271.8,291.8,236.6,314.7,195.9,321.8z M304.5,244.6h-51.6c8.9-21.1,13.8-43.5,14.6-66.8h56.3C322.5,201.9,315.7,224.6,304.5,244.6
		z"/>
</g>
</svg>
