<?xml version="1.0" encoding="utf-8"?>
<!-- Generator: Adobe Illustrator 24.3.0, SVG Export Plug-In . SVG Version: 6.00 Build 0)  -->
<svg version="1.1" id="Layer_1" xmlns:svgjs="http://svgjs.com/svgjs"
	 xmlns="http://www.w3.org/2000/svg" xmlns:xlink="http://www.w3.org/1999/xlink" x="0px" y="0px" viewBox="0 0 512 512"
	 style="enable-background:new 0 0 512 512;" xml:space="preserve">
<style type="text/css">
	.st0{fill:#E8EDDF;}
</style>
<g>
	<path class="st0" d="M465.7,0H46.3C20.7,0,0,20.7,0,46.3v419.4C0,491.3,20.7,512,46.3,512h419.4c25.6,0,46.3-20.7,46.3-46.3V46.3
		C512,20.7,491.3,0,465.7,0z M158.4,442.1c0,7.4-6,13.5-13.5,13.5H87.6c-7.4,0-13.5-6-13.5-13.5V201.6c0-7.4,6-13.5,13.5-13.5H145
		c7.4,0,13.5,6,13.5,13.5V442.1z M116.3,165.4c-30.1,0-54.5-24.4-54.5-54.5s24.4-54.5,54.5-54.5s54.5,24.4,54.5,54.5
		S146.4,165.4,116.3,165.4z M458.3,443.2c0,6.8-5.5,12.4-12.4,12.4h-61.6c-6.8,0-12.4-5.5-12.4-12.4V330.4c0-16.8,4.9-73.7-44-73.7
		c-37.9,0-45.6,39-47.2,56.4v130.1c0,6.8-5.5,12.4-12.4,12.4h-59.5c-6.8,0-12.4-5.5-12.4-12.4V200.5c0-6.8,5.5-12.4,12.4-12.4h59.5
		c6.8,0,12.4,5.5,12.4,12.4v21c14.1-21.1,35-37.4,79.5-37.4c98.6,0,98,92.1,98,142.7L458.3,443.2L458.3,443.2z"/>
</g>
</svg>
